<?xml version="1.0" standalone="no"?>
<!DOCTYPE svg PUBLIC "-//W3C//DTD SVG 20010904//EN"
 "http://www.w3.org/TR/2001/REC-SVG-20010904/DTD/svg10.dtd">
<svg version="1.0" xmlns="http://www.w3.org/2000/svg"
 width="340.000000pt" height="455.000000pt" viewBox="0 0 340.000000 455.000000"
 preserveAspectRatio="xMidYMid meet">

<g transform="translate(0.000000,455.000000) scale(0.100000,-0.100000)"
fill="#000000" stroke="none">
<path d="M1701 4517 c-1 -10 -7 -39 -15 -65 -8 -26 -21 -103 -30 -172 -33
-249 -39 -286 -59 -330 -11 -25 -28 -77 -37 -115 -10 -39 -28 -87 -41 -106
-25 -39 -56 -88 -77 -126 -16 -28 -32 -30 -32 -5 0 10 -7 27 -15 38 -8 10 -15
32 -15 48 0 16 -4 43 -9 60 -5 17 -17 99 -26 181 -21 194 -37 295 -46 295 -13
0 -33 -143 -60 -420 -5 -52 -13 -180 -18 -285 -9 -192 -22 -270 -57 -323 -35
-54 -129 -152 -146 -152 -10 0 -64 43 -120 96 -129 120 -314 244 -462 309 -31
14 -46 15 -73 7 -26 -8 -42 -7 -68 4 -19 8 -54 14 -77 14 -32 0 -57 10 -98 35
-53 34 -93 44 -104 26 -8 -12 16 -30 75 -57 27 -13 52 -30 55 -39 3 -8 12 -15
20 -15 7 0 21 -11 30 -25 10 -16 26 -25 42 -25 16 0 43 -17 76 -47 78 -73 89
-89 76 -113 -15 -28 -25 -25 -68 19 -32 35 -44 40 -87 43 -47 3 -50 2 -53 -22
-2 -19 7 -35 38 -63 49 -47 74 -83 65 -97 -4 -6 25 -41 63 -79 38 -37 81 -85
95 -107 13 -22 32 -46 41 -53 10 -8 37 -44 62 -80 44 -67 105 -143 173 -216
21 -22 54 -68 74 -101 20 -34 44 -68 54 -75 9 -8 26 -34 37 -59 12 -25 35 -65
52 -90 17 -25 34 -52 37 -60 4 -8 15 -27 25 -41 9 -14 32 -51 50 -82 18 -30
40 -61 47 -67 8 -7 15 -17 15 -23 0 -6 22 -48 50 -94 27 -46 50 -88 50 -93 0
-6 14 -29 30 -52 17 -22 30 -46 30 -53 0 -7 13 -29 29 -49 17 -21 35 -54 42
-74 7 -20 22 -57 34 -82 13 -25 28 -70 35 -100 7 -30 21 -76 31 -101 10 -25
23 -68 29 -94 6 -27 17 -63 25 -80 7 -16 16 -41 18 -55 3 -14 10 -43 16 -65 6
-22 16 -74 21 -115 5 -41 17 -124 26 -185 21 -143 33 -259 40 -370 4 -50 11
-96 17 -103 5 -7 21 -11 36 -10 25 3 26 2 33 -76 4 -44 11 -83 16 -88 11 -11
42 138 42 202 1 73 56 420 91 575 5 22 13 65 18 95 10 55 67 246 80 265 7 9
13 28 48 150 8 28 18 58 24 67 5 10 9 24 9 33 0 8 14 41 32 72 18 32 42 79 55
105 13 26 44 77 68 113 25 36 45 72 45 80 0 8 4 15 8 15 5 0 21 21 36 48 14
26 44 72 66 102 21 30 49 73 61 95 12 22 29 49 39 60 10 11 29 40 42 65 47 85
117 195 140 220 13 14 42 50 64 80 23 30 79 95 124 145 45 49 97 112 116 140
56 83 109 146 183 219 39 38 71 75 71 83 0 7 18 33 41 57 36 40 40 48 33 81
-6 35 -28 56 -50 48 -6 -2 -16 7 -22 21 -14 31 0 50 51 71 20 8 37 21 37 28 0
7 18 24 41 37 65 40 83 56 75 68 -9 14 -62 16 -71 2 -3 -6 -15 -6 -30 0 -18 7
-29 4 -48 -11 -30 -23 -36 -23 -57 -4 -16 14 -22 13 -68 -10 -28 -14 -67 -25
-90 -25 -24 0 -45 -6 -53 -16 -7 -9 -36 -31 -64 -49 -27 -19 -77 -53 -110 -75
-33 -23 -74 -49 -92 -59 -17 -9 -78 -57 -135 -107 -142 -125 -141 -125 -188
-79 -24 23 -42 53 -49 79 -6 27 -19 47 -33 55 -57 30 -76 99 -83 286 -2 50 -8
124 -14 165 -7 41 -16 127 -21 190 -17 223 -30 326 -43 365 l-14 40 -7 -50
c-15 -105 -39 -211 -54 -233 -17 -26 -30 -112 -38 -264 -5 -84 -9 -105 -20
-101 -8 3 -14 11 -14 17 0 7 -15 30 -33 52 -43 51 -80 118 -96 174 -8 25 -22
68 -34 95 -38 95 -51 154 -67 310 -15 144 -36 278 -48 305 -8 19 -11 21 -11 7z
m39 -1186 c0 -4 16 -28 34 -53 56 -72 55 -86 0 -178 -27 -44 -52 -80 -56 -80
-3 0 -17 17 -29 38 -13 20 -26 39 -29 42 -16 12 -65 106 -62 119 2 7 23 42 48
76 24 35 44 70 44 78 0 28 14 26 32 -3 10 -17 18 -34 18 -39z m-344 -454 c9
-18 36 -58 61 -90 42 -54 44 -59 29 -76 -9 -10 -16 -20 -16 -22 0 -3 -21 -27
-46 -54 l-47 -48 -18 22 c-11 13 -19 34 -19 47 0 13 -5 24 -10 24 -6 0 -28 28
-50 63 -37 57 -38 63 -22 74 25 18 33 26 70 67 36 40 45 40 68 -7z m716 4 c18
-16 50 -43 71 -61 20 -18 37 -39 37 -47 0 -9 -22 -43 -49 -77 -26 -34 -53 -72
-60 -84 -6 -12 -18 -22 -27 -22 -14 0 -18 8 -43 75 -7 17 -25 46 -41 65 -17
19 -30 42 -30 50 0 21 81 130 96 130 7 0 27 -13 46 -29z m-312 -445 c25 -23
60 -49 77 -56 18 -8 35 -21 38 -28 5 -15 -34 -89 -72 -135 -13 -16 -23 -36
-23 -44 0 -19 -52 -137 -62 -141 -4 -2 -8 -17 -8 -32 0 -16 -4 -32 -10 -35 -5
-3 -10 -23 -10 -43 0 -51 -16 -30 -36 48 -15 62 -62 183 -86 225 -48 82 -67
129 -62 150 3 14 28 38 62 60 32 19 68 49 81 65 29 34 41 31 111 -34z"/>
</g>
</svg>
