<?xml version="1.0" standalone="no"?>
<!DOCTYPE svg PUBLIC "-//W3C//DTD SVG 20010904//EN"
 "http://www.w3.org/TR/2001/REC-SVG-20010904/DTD/svg10.dtd">
<svg version="1.0" xmlns="http://www.w3.org/2000/svg"
 width="800.000000pt" height="690.000000pt" viewBox="0 0 800.000000 690.000000"
 preserveAspectRatio="xMidYMid meet">

<g transform="translate(0.000000,690.000000) scale(0.100000,-0.100000)"
fill="#000000" stroke="none">
<path d="M4088 6881 c-43 -14 -108 -54 -108 -67 0 -13 -73 -64 -99 -69 -27 -5
-111 -48 -111 -57 0 -12 35 -9 48 4 9 9 15 9 24 0 19 -19 -5 -30 -82 -38 -77
-8 -209 -63 -185 -77 8 -4 21 -5 28 -1 6 4 -6 -11 -28 -33 -52 -52 -81 -93
-77 -110 2 -7 -2 -13 -8 -13 -6 0 -8 -4 -5 -10 3 -5 -1 -10 -10 -10 -9 0 -14
-4 -11 -8 3 -5 -4 -14 -14 -22 -10 -8 -17 -17 -14 -22 3 -4 -2 -8 -11 -8 -9 0
-13 -4 -10 -10 3 -5 2 -10 -4 -10 -19 0 -81 -70 -81 -91 0 -11 -4 -18 -9 -15
-4 3 -17 -10 -27 -29 -10 -19 -22 -35 -26 -35 -5 0 -8 -7 -8 -15 0 -8 -5 -15
-11 -15 -6 0 -8 -9 -4 -21 5 -16 4 -19 -5 -14 -9 5 -11 4 -6 -3 4 -6 1 -21 -6
-33 -17 -29 -77 -89 -89 -89 -6 0 -7 -4 -4 -10 3 -5 -1 -10 -10 -10 -9 0 -13
-4 -10 -10 3 -5 0 -10 -7 -10 -8 0 -21 -8 -30 -17 -9 -10 -23 -24 -30 -31 -46
-45 -61 -67 -62 -93 -1 -20 -5 -28 -14 -24 -9 3 -11 -1 -7 -15 4 -11 2 -20 -4
-20 -6 0 -11 -6 -11 -13 0 -8 -10 -25 -21 -38 -12 -13 -28 -34 -36 -46 -9 -13
-24 -23 -35 -23 -10 0 -16 -4 -13 -10 3 -5 2 -10 -4 -10 -18 0 -50 -42 -44
-58 5 -11 3 -13 -7 -7 -10 6 -12 4 -7 -8 4 -11 1 -17 -9 -17 -8 0 -13 -4 -9
-9 3 -5 -4 -12 -15 -16 -11 -4 -18 -11 -15 -16 4 -5 -1 -9 -10 -9 -9 0 -14 -4
-11 -9 3 -5 -1 -14 -9 -21 -8 -7 -15 -19 -15 -26 0 -17 -44 -46 -76 -50 -26
-2 -63 -24 -93 -52 -9 -9 -31 -28 -48 -42 -17 -13 -30 -27 -27 -31 8 -13 -54
-71 -79 -74 -52 -6 -167 -96 -167 -131 0 -8 -4 -14 -10 -14 -5 0 -10 -11 -10
-25 0 -14 -5 -25 -11 -25 -7 0 -9 -12 -5 -35 5 -23 3 -35 -4 -35 -6 0 -8 -5
-4 -11 7 -11 -12 -54 -33 -77 -7 -7 -13 -18 -13 -23 0 -5 -7 -9 -16 -9 -8 0
-12 -4 -9 -10 3 -5 -1 -10 -10 -10 -8 0 -19 -8 -22 -17 -4 -10 -15 -26 -26
-35 -13 -12 -17 -23 -12 -39 5 -15 4 -19 -5 -14 -7 4 -10 2 -9 -6 3 -20 -12
-51 -33 -70 -10 -9 -15 -19 -11 -23 3 -3 1 -6 -6 -6 -6 0 -25 -14 -41 -30 -16
-16 -34 -30 -40 -30 -5 0 -10 -11 -10 -24 0 -52 -17 -73 -76 -96 -54 -20 -104
-59 -104 -81 0 -5 -4 -9 -9 -9 -5 0 -11 -23 -15 -51 -7 -54 -19 -72 -53 -83
-41 -13 -93 -71 -100 -110 -3 -20 -10 -36 -14 -36 -5 0 -9 -5 -9 -11 0 -6 -16
-27 -35 -46 -19 -19 -38 -46 -41 -59 -3 -13 -14 -26 -24 -29 -10 -3 -21 -18
-25 -33 -8 -32 -21 -42 -56 -42 -18 0 -28 -6 -32 -21 -6 -21 -3 -23 47 -34 23
-5 27 -8 15 -16 -9 -5 -9 -9 -2 -9 6 0 14 4 18 10 3 5 34 19 68 32 46 16 77
37 119 79 32 32 58 62 58 69 0 6 10 22 23 35 12 14 32 36 44 49 12 14 25 36
29 50 3 15 10 29 15 32 5 3 9 18 9 34 0 21 6 31 22 36 67 21 178 110 178 142
0 22 30 52 51 52 8 0 41 25 73 55 33 30 62 52 67 50 12 -8 40 7 36 19 -5 15
64 56 85 50 9 -3 20 1 25 9 16 27 96 68 151 78 32 6 100 14 152 20 183 18 206
24 297 80 94 57 214 171 206 194 -4 12 44 65 58 65 6 0 7 5 4 10 -3 6 -1 11 4
11 6 1 17 2 24 3 6 1 11 7 10 13 -2 7 6 15 17 18 11 4 18 10 15 15 -3 5 4 11
15 15 11 4 18 10 15 15 -3 4 7 11 20 14 14 4 23 11 20 16 -3 6 -1 10 5 10 6 0
8 4 5 10 -3 5 10 16 29 24 41 17 183 156 159 156 -3 0 4 8 15 19 12 10 19 21
15 25 -3 3 -1 6 5 6 7 0 12 8 12 18 0 23 29 51 59 57 19 4 39 21 84 75 10 12
16 24 13 27 -3 3 8 18 24 33 16 15 27 30 24 33 -15 15 23 67 93 127 32 28 104
70 118 70 8 0 65 31 128 69 130 78 223 141 211 141 -5 0 6 9 25 21 19 11 51
38 72 59 l38 39 -2 100 c-1 69 2 104 11 112 6 7 12 23 12 36 0 13 4 23 10 23
5 0 12 23 16 50 4 28 10 50 15 50 5 0 9 24 9 54 0 30 6 60 13 68 7 7 20 25 29
40 17 26 17 27 -5 33 -12 4 -39 20 -59 36 -20 16 -42 29 -47 29 -6 0 -11 3
-12 8 -6 60 -17 76 -75 101 -24 11 -64 33 -88 50 -50 35 -88 44 -128 32z"/>
<path d="M5165 6750 c-40 -13 -69 -29 -86 -50 -21 -24 -53 -40 -144 -72 -109
-37 -124 -40 -221 -39 -84 1 -104 -1 -104 -13 0 -8 -5 -16 -11 -18 -14 -5 -3
-78 11 -78 6 0 10 -15 10 -34 0 -26 -5 -36 -19 -41 -11 -3 -23 -15 -26 -26 -4
-10 -10 -19 -15 -19 -11 0 -20 -39 -9 -46 5 -3 9 -14 9 -24 0 -10 7 -25 15
-34 8 -8 15 -19 15 -25 0 -6 4 -11 9 -11 5 0 13 -10 17 -22 4 -13 10 -25 13
-28 4 -3 17 -20 30 -38 12 -18 27 -30 32 -27 5 4 6 -2 2 -11 -5 -13 -3 -16 10
-11 11 4 14 2 10 -9 -3 -8 -2 -14 3 -13 26 4 36 -2 31 -21 -3 -11 -1 -18 3
-15 12 7 33 -32 25 -45 -3 -6 1 -10 10 -10 9 0 13 -5 10 -11 -4 -5 3 -18 15
-29 12 -10 22 -22 23 -27 1 -4 5 -7 9 -6 4 2 5 -4 2 -12 -3 -8 -1 -20 5 -27
39 -46 70 -78 78 -78 12 0 46 -41 39 -47 -3 -3 4 -14 15 -24 12 -10 18 -23 14
-28 -3 -6 -1 -11 4 -11 6 0 11 -7 11 -16 0 -8 4 -13 9 -10 5 4 7 -3 4 -14 -3
-11 0 -20 6 -20 6 0 11 -5 11 -11 0 -13 38 -49 52 -49 5 0 6 -4 3 -10 -3 -5 1
-10 9 -10 8 0 18 -9 21 -20 3 -11 11 -20 17 -20 5 0 8 -7 4 -15 -3 -9 0 -15
10 -15 8 0 12 -4 9 -10 -3 -5 -1 -10 5 -10 7 0 9 -7 6 -15 -6 -16 8 -47 32
-73 6 -7 12 -18 12 -23 0 -5 11 -11 25 -15 14 -3 25 -10 25 -15 0 -4 12 -20
28 -36 26 -26 27 -31 27 -129 0 -92 -2 -104 -21 -121 -12 -10 -24 -28 -28 -40
-4 -13 -14 -23 -22 -23 -8 0 -12 -4 -9 -10 3 -5 -1 -10 -10 -10 -9 0 -13 -4
-10 -10 3 -5 1 -10 -5 -10 -6 0 -10 -8 -8 -17 2 -11 -2 -17 -10 -15 -8 1 -10
-2 -7 -8 4 -6 -3 -20 -16 -31 -12 -10 -19 -19 -15 -19 3 0 -7 -13 -22 -30 -16
-16 -35 -30 -41 -30 -7 0 -10 -4 -6 -9 3 -5 -4 -12 -15 -16 -11 -3 -20 -10
-20 -15 0 -5 -9 -12 -21 -15 -11 -4 -18 -9 -15 -12 6 -7 -32 -43 -45 -43 -5 0
-6 -7 -2 -15 3 -9 2 -15 -3 -14 -24 4 -36 -2 -30 -16 3 -8 0 -14 -7 -12 -7 1
-11 -4 -9 -10 2 -12 -11 -18 -32 -14 -5 1 -6 -5 -3 -14 4 -9 1 -15 -9 -15 -8
0 -13 -4 -9 -9 3 -5 -4 -12 -15 -16 -11 -4 -18 -11 -15 -16 4 -5 -1 -9 -10 -9
-9 0 -13 -4 -10 -10 3 -5 2 -10 -3 -10 -14 0 -52 -36 -45 -43 10 -10 -18 -37
-38 -37 -12 0 -16 -5 -12 -15 3 -9 2 -15 -3 -14 -24 4 -36 -2 -30 -16 3 -8 0
-14 -7 -12 -7 1 -11 -3 -10 -10 2 -6 -6 -15 -17 -18 -11 -4 -18 -11 -15 -16 4
-5 -1 -9 -10 -9 -9 0 -13 -4 -10 -10 3 -5 1 -10 -5 -10 -6 0 -8 -4 -5 -10 3
-5 -5 -12 -19 -16 -16 -4 -23 -11 -19 -20 3 -9 -2 -14 -16 -14 -15 0 -19 -4
-14 -17 4 -10 2 -14 -4 -10 -13 8 -83 -51 -83 -69 0 -8 -7 -14 -15 -14 -8 0
-20 -10 -26 -22 -7 -13 -21 -31 -32 -40 -11 -10 -17 -18 -12 -18 4 0 -7 -13
-25 -30 -18 -16 -29 -30 -25 -30 5 0 -2 -9 -14 -19 -13 -11 -20 -25 -16 -31 7
-11 -30 -50 -47 -50 -5 0 -6 -4 -3 -10 3 -5 -1 -10 -10 -10 -9 0 -13 -4 -10
-10 3 -5 1 -10 -5 -10 -6 0 -8 -4 -5 -10 3 -5 -1 -10 -10 -10 -9 0 -13 -4 -10
-10 3 -5 -1 -10 -10 -10 -9 0 -13 -4 -10 -10 3 -5 1 -10 -5 -10 -6 0 -8 -4 -5
-10 3 -5 -1 -10 -9 -10 -10 0 -13 -6 -9 -17 4 -10 2 -14 -5 -9 -13 8 -62 -39
-62 -60 0 -8 -4 -12 -10 -9 -5 3 -10 -1 -10 -9 0 -9 -5 -16 -11 -16 -5 0 -7
-4 -4 -10 3 -5 -2 -10 -11 -10 -10 0 -14 -3 -11 -6 4 -4 -3 -15 -15 -25 -11
-11 -17 -19 -13 -19 4 0 -2 -9 -14 -19 -13 -11 -20 -25 -16 -30 3 -6 -2 -11
-11 -11 -10 0 -14 -3 -11 -6 3 -4 -6 -18 -21 -33 -15 -14 -36 -45 -47 -68 -11
-24 -23 -43 -26 -43 -4 0 -10 -16 -13 -35 -4 -19 -11 -35 -16 -35 -6 0 -10 -9
-10 -19 0 -11 -4 -21 -9 -23 -13 -5 -24 -98 -12 -98 11 0 4 -60 -8 -70 -12
-10 -31 -50 -31 -65 0 -8 -4 -15 -10 -15 -5 0 -9 -6 -7 -12 1 -7 -3 -12 -10
-11 -11 2 -43 -54 -43 -76 0 -6 -4 -11 -10 -11 -6 0 -10 -32 -10 -75 0 -66 3
-79 23 -98 13 -12 26 -29 29 -38 7 -19 67 -49 97 -49 19 0 59 17 71 30 19 21
72 49 103 55 l37 7 0 -40 c0 -36 -3 -41 -31 -51 -18 -6 -43 -11 -56 -11 -59 0
-80 -38 -43 -78 26 -27 60 -36 108 -27 42 8 66 29 75 67 6 21 15 29 42 34 19
3 38 10 41 15 3 5 14 9 25 9 11 0 18 4 15 9 -3 4 6 13 19 19 14 7 25 18 25 27
0 8 5 15 10 15 14 0 13 73 -2 88 -16 16 4 38 44 46 37 7 88 57 88 86 0 11 -4
20 -10 20 -5 0 -10 9 -10 20 0 32 22 64 108 155 18 19 30 35 27 35 -7 0 27 38
80 90 22 22 45 44 50 50 55 59 68 68 134 83 122 30 163 52 206 112 11 15 38
45 60 66 53 52 50 49 88 91 19 20 42 49 53 64 10 14 47 55 82 90 34 36 62 69
62 74 0 5 33 41 73 79 196 191 331 319 368 351 101 86 200 182 239 230 25 32
35 42 91 92 34 29 96 45 112 29 21 -21 83 -12 146 21 33 17 59 34 56 36 -2 3
7 16 22 30 21 19 33 23 59 19 19 -3 36 -2 39 2 2 5 20 11 39 14 20 3 45 15 57
26 19 17 21 27 15 68 -3 26 -11 50 -16 51 -6 2 -10 11 -10 21 0 9 -9 23 -20
31 -11 8 -20 19 -20 25 0 6 -9 17 -20 25 -25 18 -28 80 -5 80 9 0 15 9 15 25
0 14 -4 25 -9 25 -5 0 -11 23 -15 50 -5 34 -11 50 -21 50 -11 0 -13 8 -8 30 4
23 2 29 -8 25 -11 -4 -14 8 -15 52 0 35 -5 58 -12 61 -7 2 -12 12 -12 23 0 10
-4 19 -10 19 -5 0 -10 5 -10 11 0 13 -30 79 -45 97 -29 37 -88 92 -99 92 -15
0 -46 36 -39 44 4 3 0 6 -8 6 -19 0 -46 33 -41 49 3 8 0 11 -7 7 -6 -4 -11 0
-11 9 0 9 -4 13 -10 10 -6 -3 -7 1 -4 9 4 11 0 16 -15 16 -12 0 -21 6 -21 16
0 9 -5 12 -12 8 -8 -5 -9 -2 -5 9 4 11 1 17 -9 17 -8 0 -12 5 -9 10 3 6 -2 10
-11 10 -10 0 -14 3 -11 6 3 4 -7 19 -24 35 -17 16 -28 33 -24 39 3 5 1 10 -5
10 -7 0 -10 7 -6 15 3 9 0 15 -10 15 -11 0 -13 6 -9 21 4 13 3 19 -3 15 -5 -3
-12 10 -15 30 -4 21 -18 46 -37 64 -17 16 -29 34 -25 40 3 5 -1 10 -9 10 -10
0 -13 6 -10 15 4 8 1 15 -6 15 -7 0 -10 6 -7 14 3 8 -3 23 -14 34 -10 12 -19
26 -19 32 0 5 -5 10 -11 10 -5 0 -8 4 -5 8 6 10 -30 52 -45 52 -6 0 -7 5 -4
10 3 6 -5 10 -19 10 -28 0 -76 39 -76 62 0 8 -5 19 -12 26 -8 8 -8 15 2 27 13
16 7 30 -31 65 -9 8 -14 21 -12 28 3 6 0 12 -6 12 -6 0 -11 7 -11 15 0 8 -4
15 -10 15 -5 0 -10 6 -10 13 0 7 -16 26 -35 42 -20 17 -49 43 -66 58 -27 26
-38 29 -112 31 -45 2 -100 6 -122 9 -27 4 -60 0 -100 -13z"/>
<path d="M3470 4713 c-8 -2 -24 -8 -35 -13 -11 -5 -51 -18 -89 -31 -38 -12
-77 -30 -86 -39 -10 -10 -21 -16 -24 -12 -3 3 -17 0 -31 -6 -14 -7 -37 -18
-51 -24 -15 -7 -43 -28 -62 -45 -20 -18 -40 -33 -45 -33 -4 0 -6 -4 -2 -9 3
-5 -4 -12 -15 -16 -11 -4 -18 -11 -15 -16 4 -5 -4 -13 -17 -18 -13 -6 -18 -10
-13 -11 16 -1 -57 -61 -95 -78 -19 -8 -50 -17 -69 -19 -31 -3 -121 -57 -130
-76 -1 -5 -14 -19 -28 -33 -13 -13 -22 -28 -19 -32 3 -5 -3 -14 -14 -22 -10
-7 -16 -19 -13 -26 5 -15 -19 -43 -51 -60 -12 -6 -20 -16 -19 -22 2 -7 -1 -12
-5 -12 -17 0 -54 -39 -47 -49 3 -6 1 -11 -5 -11 -7 0 -10 -6 -7 -13 5 -12 -6
-29 -53 -85 -6 -7 -15 -10 -21 -7 -5 4 -9 0 -9 -9 0 -8 -13 -17 -30 -21 -36
-8 -38 -11 -44 -60 -5 -39 -48 -95 -74 -95 -20 0 -44 -28 -36 -41 4 -8 3 -9
-4 -5 -7 4 -12 2 -12 -4 0 -6 -12 -22 -26 -35 -15 -14 -23 -25 -19 -25 5 0 -5
-11 -21 -25 -16 -14 -38 -25 -48 -25 -21 0 -58 -27 -123 -88 -47 -44 -117 -82
-152 -82 -12 0 -57 -18 -98 -40 -42 -22 -84 -40 -93 -40 -19 0 -161 -71 -272
-135 -46 -27 -107 -53 -153 -64 -42 -11 -84 -26 -93 -34 -27 -24 -93 -54 -158
-72 -36 -10 -75 -29 -93 -46 -18 -16 -36 -29 -42 -29 -16 0 -10 -28 8 -36 26
-11 490 -14 540 -3 39 8 91 29 201 81 23 11 49 17 57 14 8 -3 17 -2 19 3 3 4
18 6 33 4 35 -6 146 34 137 49 -4 6 1 8 15 3 12 -4 21 -2 21 4 0 14 67 43 110
47 19 1 35 3 35 4 0 1 7 3 15 5 18 4 141 50 190 72 19 8 46 20 60 25 14 6 33
14 42 19 10 5 24 9 31 9 8 0 22 9 32 20 10 12 24 19 31 16 7 -3 18 2 25 10 7
8 18 13 25 10 7 -3 18 2 24 10 7 8 19 14 26 14 8 0 22 4 32 9 9 5 24 12 32 15
8 3 22 10 30 14 8 5 33 17 55 26 22 10 53 24 68 32 16 8 34 14 41 14 7 0 21 9
31 20 10 11 22 17 27 14 5 -3 20 4 32 15 13 12 30 19 38 16 9 -4 18 1 22 10 4
11 12 14 26 10 12 -4 20 -2 20 5 0 6 4 9 9 6 14 -9 42 5 35 16 -4 6 2 8 15 3
12 -4 21 -2 21 4 0 14 47 33 138 56 56 15 75 16 84 7 21 -21 28 -13 26 28 -1
40 19 69 50 70 37 1 147 93 138 116 -2 6 4 17 14 24 11 8 17 17 14 22 -3 4 2
8 11 8 9 0 13 5 10 10 -3 6 -1 10 5 10 7 0 10 7 6 15 -3 9 0 15 10 15 8 0 12
5 9 10 -3 6 1 10 9 10 9 0 16 4 16 9 0 5 6 16 13 23 27 28 47 63 47 85 0 13 5
23 10 23 13 0 13 37 -1 42 -5 2 -13 38 -16 81 -5 70 -4 79 16 96 11 10 21 23
21 30 0 6 5 11 10 11 6 0 10 7 10 15 0 8 5 15 11 15 7 0 9 11 5 30 -3 19 -2
29 4 25 6 -3 15 6 20 22 6 15 15 36 20 45 6 10 10 25 10 33 0 8 5 15 10 15 6
0 10 15 10 33 0 32 -30 77 -51 77 -6 0 -7 5 -4 10 3 6 1 10 -4 10 -6 0 -19 8
-29 18 -35 34 -146 54 -202 35z"/>
<path d="M6178 4398 c-21 -6 -38 -14 -38 -18 0 -5 -19 -11 -42 -14 -101 -15
-160 -38 -199 -75 -9 -9 -30 -27 -49 -41 -47 -36 -197 -190 -185 -190 3 0 -4
-11 -17 -24 -13 -13 -30 -33 -38 -45 -27 -35 -76 -84 -145 -146 -94 -84 -136
-126 -165 -163 -50 -67 -86 -100 -150 -138 -59 -35 -197 -164 -243 -225 -27
-37 -97 -116 -150 -170 -26 -27 -45 -49 -42 -49 3 0 -6 -11 -20 -25 -14 -14
-25 -29 -25 -33 0 -6 -76 -94 -111 -127 -111 -107 -159 -158 -159 -170 0 -8
-4 -15 -9 -15 -5 0 -13 -10 -17 -22 -4 -13 -29 -43 -55 -67 -27 -25 -49 -50
-49 -55 0 -14 -33 -56 -87 -112 -33 -34 -43 -51 -43 -77 0 -35 5 -42 102 -132
42 -39 43 -42 37 -89 -4 -42 -19 -65 -41 -66 -5 0 -8 7 -8 15 0 8 -4 15 -10
15 -5 0 -10 7 -10 15 0 37 -129 36 -187 -2 -38 -25 -104 -94 -98 -104 3 -4 -4
-10 -15 -14 -11 -3 -20 -10 -20 -14 0 -4 -11 -21 -25 -37 -14 -16 -28 -40 -32
-53 -9 -35 35 -71 88 -71 69 0 93 16 240 155 33 32 39 31 39 -5 0 -16 -4 -30
-10 -30 -6 0 -10 -26 -10 -58 0 -55 1 -58 35 -76 32 -18 48 -46 26 -46 -5 0
-12 -8 -15 -17 -10 -31 -135 -96 -216 -112 -67 -14 -118 -39 -126 -63 -3 -10
-10 -18 -16 -18 -5 0 -8 -7 -5 -14 4 -10 1 -13 -9 -9 -10 3 -12 0 -8 -10 3
-10 -5 -19 -25 -28 -16 -7 -28 -16 -25 -20 2 -4 -5 -10 -16 -14 -11 -4 -49
-35 -83 -70 -81 -83 -89 -93 -82 -105 6 -10 -61 -80 -77 -80 -5 0 -6 -4 -3
-10 3 -5 -6 -12 -20 -16 -13 -3 -22 -10 -19 -15 3 -5 1 -9 -4 -9 -5 0 -26 -16
-46 -35 -21 -19 -42 -35 -48 -35 -5 0 -7 -7 -4 -16 4 -10 2 -13 -6 -8 -8 5 -9
2 -5 -9 3 -10 3 -17 -2 -17 -4 0 -21 -11 -37 -25 -16 -14 -35 -25 -42 -25 -7
0 -10 -5 -7 -10 4 -6 -7 -15 -24 -21 -17 -6 -29 -14 -26 -19 3 -4 -9 -13 -25
-20 -16 -7 -27 -16 -25 -20 3 -5 -4 -11 -15 -15 -19 -6 -53 -37 -97 -89 -17
-19 -23 -39 -23 -75 0 -54 7 -60 70 -68 50 -6 63 -22 48 -56 -9 -18 -21 -27
-38 -27 -71 -1 -77 -63 -7 -74 23 -4 61 -16 83 -27 l42 -20 63 21 c35 12 72
25 81 31 10 5 25 9 33 9 19 0 89 46 127 82 16 16 34 28 39 28 6 0 9 7 5 15 -3
8 -2 14 2 14 22 -4 33 3 28 16 -5 14 6 20 28 16 5 -1 6 5 3 14 -4 9 -1 15 9
15 8 0 13 4 10 9 -3 5 8 14 24 21 16 7 27 16 25 20 -3 5 4 11 15 15 11 4 18
10 15 15 -3 5 5 12 19 16 18 4 23 11 19 22 -4 10 -3 14 2 10 11 -10 45 10 45
27 0 8 3 14 8 14 22 -4 34 3 28 16 -3 8 -2 14 2 14 22 -4 33 3 29 15 -4 9 3
16 19 20 14 4 22 11 19 16 -3 5 4 11 15 15 11 4 18 11 15 16 -4 5 1 9 10 9 9
0 14 4 10 9 -3 5 4 12 15 16 11 4 18 11 15 16 -4 5 -2 9 3 9 17 0 49 35 44 49
-2 8 0 11 5 8 14 -9 56 29 48 42 -3 7 3 11 14 11 12 0 21 7 21 15 0 8 5 15 11
15 5 0 7 5 4 10 -3 6 -2 10 3 10 14 0 52 36 45 44 -3 3 -1 6 6 6 7 0 10 4 7 9
-8 13 82 92 102 90 30 -4 86 29 130 75 23 25 47 46 53 46 5 0 8 4 5 9 -3 5 8
14 24 21 16 7 27 16 25 20 -3 5 4 12 16 15 12 4 18 12 15 21 -3 7 -2 13 2 13
21 -3 32 3 32 17 0 8 4 13 9 10 12 -8 33 19 23 29 -4 5 -2 5 4 2 13 -8 37 16
27 26 -3 4 0 7 8 7 8 0 22 9 32 20 9 11 14 20 11 20 -3 0 2 7 10 15 9 9 21 24
28 33 18 25 117 84 129 76 12 -7 96 46 135 86 48 48 54 58 47 76 -4 12 -3 15
5 10 7 -4 12 -1 12 8 0 10 9 16 21 16 15 0 19 5 15 16 -3 8 -2 12 4 9 6 -3 10
1 10 10 0 9 4 14 9 10 14 -8 51 35 44 51 -3 8 0 14 7 14 6 0 8 5 5 10 -3 6 1
10 10 10 9 0 14 4 10 9 -3 5 4 12 15 16 11 4 18 11 15 16 -4 5 1 9 10 9 9 0
13 4 10 10 -8 12 7 31 68 85 25 23 39 29 58 27 13 -2 149 140 144 149 -4 5 -1
9 5 9 8 0 10 13 5 40 -6 35 -4 44 16 60 12 11 18 20 14 20 -4 0 3 9 16 20 13
11 33 29 44 39 11 10 30 21 41 25 12 4 33 17 47 29 14 12 37 32 52 44 14 13
24 27 21 32 -4 5 3 12 14 16 11 4 18 11 15 16 -4 5 -2 9 4 9 9 0 26 13 98 78
71 64 83 36 82 -190 0 -102 -4 -158 -11 -158 -15 0 -7 -265 10 -282 15 -15 17
-168 1 -168 -5 0 -7 -4 -4 -10 3 -5 1 -10 -4 -10 -6 0 -11 -7 -11 -15 0 -8 -4
-15 -10 -15 -5 0 -10 -6 -10 -14 0 -8 -5 -16 -11 -18 -5 -2 -13 -38 -16 -80
-5 -72 -4 -77 20 -102 31 -31 56 -33 91 -5 19 15 26 30 26 55 0 19 5 34 10 34
6 0 10 16 10 35 0 19 5 35 10 35 6 0 10 11 10 25 0 14 -4 25 -10 25 -5 0 -10
25 -10 55 0 30 4 55 9 55 4 0 11 20 14 45 3 29 12 52 26 64 11 10 21 24 21 30
0 7 15 18 33 26 38 16 64 45 73 80 3 14 10 25 15 25 5 0 9 11 9 25 0 14 5 25
11 25 8 0 10 19 5 65 -5 46 -3 65 5 65 8 0 10 13 5 40 -5 33 -3 40 10 40 14 0
15 9 9 60 -6 53 -5 60 10 60 13 0 16 6 11 25 -4 15 -2 25 5 25 7 0 10 20 7 58
-2 37 1 56 8 55 7 -1 9 17 6 53 -3 33 -1 54 6 54 5 0 12 10 16 23 7 28 64 67
97 67 14 0 41 -13 59 -30 18 -16 37 -30 41 -30 15 0 82 -50 98 -73 39 -56 76
-60 99 -10 14 32 16 89 2 98 -5 3 -10 22 -10 41 0 19 -4 34 -9 34 -5 0 -11 18
-15 40 -3 22 -11 40 -16 40 -6 0 -10 7 -10 15 0 8 -7 15 -15 15 -9 0 -12 6 -9
15 4 8 1 15 -6 15 -7 0 -10 8 -7 20 3 12 0 20 -7 20 -13 0 -46 71 -46 99 0 11
-4 23 -10 26 -5 3 -10 15 -10 26 0 10 5 19 10 19 6 0 10 11 10 24 0 13 5 26
12 28 17 6 -2 224 -19 221 -9 -2 -11 6 -6 27 4 22 2 30 -8 30 -10 0 -14 16
-15 59 -2 52 -6 63 -34 95 -18 19 -36 33 -41 31 -12 -8 -59 47 -59 68 0 7 -3
17 -7 21 -5 4 -9 28 -9 54 -1 25 -7 48 -13 50 -6 2 -11 12 -11 23 0 10 -4 19
-9 19 -5 0 -12 9 -16 19 -10 32 -76 51 -173 50 -48 -1 -104 -6 -124 -11z"/>
<path d="M3185 422 c-16 -8 -40 -25 -51 -38 -12 -12 -24 -21 -27 -18 -3 3 -15
-10 -28 -28 -13 -18 -28 -36 -34 -40 -5 -4 -6 -8 -1 -8 5 0 -1 -8 -12 -19 -12
-10 -19 -21 -15 -25 3 -3 2 -6 -4 -6 -27 0 -119 -97 -129 -136 -11 -44 0 -68
40 -88 34 -17 44 -17 92 -6 39 10 61 21 77 43 12 16 28 35 35 43 7 8 10 14 6
14 -12 0 74 61 89 64 35 5 118 64 132 93 30 63 17 139 -26 148 -16 4 -31 11
-34 16 -9 14 -76 9 -110 -9z"/>
</g>
</svg>
